<svg width="90" height="90" viewBox="0 0 90 90" fill="none" xmlns="http://www.w3.org/2000/svg">
<path d="M11.5001 17.5001C19.8009 8.217 25.4997 2.62874 37.5001 1.00004C64.9022 -2.71898 90.0001 42.4921 90.0001 52.9917C90.0001 63.4913 78.6699 91.7289 66.0001 89C54.0374 86.4234 55.42 73.7698 43.2218 73.2109C33.218 72.7525 30.2504 84.2389 20.2881 85.3031C14.1173 85.9623 12.2718 84.446 7 81C-1.80854 75.2421 0.608918 63.9201 0.500164 52.9919C0.34351 37.2505 1.66397 28.5003 11.5001 17.5001Z" fill="#D5D6E9"/>
<path d="M47 8.50002C47 8.50002 21.3539 4.45551 11.9995 16.5001C9.80076 19.3311 8.51994 21.0639 7.49945 24.5001C4.86262 33.3789 7.60763 37.5522 10 46.5C11.0888 50.5721 10.5863 52.8259 10 57C9.15723 63 7.08161 63.4208 5.49945 70.0001C2.41215 82.8385 23.8895 87.0714 37 85.5001C44.6378 84.5846 46.8158 78.355 54.5 78.0001C63.0846 77.6035 67.9995 83.5001 74.9995 83.5001C81.9994 83.5001 86.0086 80.6945 88.5 72.5C91.9704 61.0857 81.9995 44.5001 81.9995 44.5001C77.9995 34 81.0005 30.5001 77 24.5001C69.7174 13.5777 47 8.50002 47 8.50002Z" fill="#004AAD"/>
</svg>
