<svg width="90" height="89" viewBox="0 0 90 89" fill="none" xmlns="http://www.w3.org/2000/svg">
<path d="M11.2247 16.7169C19.5255 7.43379 25.2243 1.84553 37.2247 0.216833C64.6268 -3.50218 89.7247 41.7089 89.7247 52.2085C89.7247 62.7081 78.3945 90.9457 65.7247 88.2168C53.762 85.6402 55.1446 72.9866 42.9465 72.4277C32.9426 71.9693 29.9751 83.4557 20.0127 84.5199C13.8419 85.1791 11.9964 83.6628 6.72461 80.2168C-2.08393 74.4589 0.333528 63.1369 0.224774 52.2087C0.0681197 36.4673 1.38858 27.7171 11.2247 16.7169Z" fill="#7FA4D7"/>
<path d="M46.7246 7.71682C46.7246 7.71682 21.0785 3.67231 11.7241 15.7169C9.52536 18.5479 8.24455 20.2807 7.22406 23.7169C4.58723 32.5957 7.33224 36.769 9.72461 45.7168C10.8134 49.7889 10.3109 52.0427 9.72461 56.2168C8.88184 62.2168 6.80622 62.6376 5.22406 69.2169C2.13676 82.0553 23.6141 86.2882 36.7246 84.7169C44.3624 83.8014 46.5404 77.5718 54.2246 77.2169C62.8092 76.8203 67.7241 82.7169 74.7241 82.7169C81.724 82.7169 85.7332 79.9113 88.2246 71.7168C91.695 60.3025 81.7241 43.7169 81.7241 43.7169C77.7241 33.2168 80.7252 29.7169 76.7246 23.7169C69.442 12.7945 46.7246 7.71682 46.7246 7.71682Z" fill="white"/>
</svg>
