<svg width="440" height="202" viewBox="0 0 440 202" fill="none" xmlns="http://www.w3.org/2000/svg">
<path d="M243.75 123.75C243.75 128 242.958 131.729 241.375 134.938C239.792 138.146 237.646 140.833 234.938 143C232.229 145.125 229.062 146.729 225.438 147.812C221.812 148.896 217.938 149.438 213.812 149.438C211.021 149.438 208.417 149.208 206 148.75C203.625 148.292 201.521 147.75 199.688 147.125C197.854 146.458 196.312 145.771 195.062 145.062C193.854 144.354 192.979 143.729 192.438 143.188C191.896 142.646 191.5 141.875 191.25 140.875C191.042 139.833 190.938 138.354 190.938 136.438C190.938 135.146 190.979 134.062 191.062 133.188C191.146 132.312 191.271 131.604 191.438 131.062C191.646 130.521 191.896 130.146 192.188 129.938C192.521 129.688 192.896 129.562 193.312 129.562C193.896 129.562 194.708 129.917 195.75 130.625C196.833 131.292 198.208 132.042 199.875 132.875C201.542 133.708 203.521 134.479 205.812 135.188C208.146 135.854 210.833 136.188 213.875 136.188C215.875 136.188 217.667 135.958 219.25 135.5C220.833 135 222.167 134.312 223.25 133.438C224.375 132.562 225.229 131.479 225.812 130.188C226.396 128.896 226.688 127.458 226.688 125.875C226.688 124.042 226.188 122.479 225.188 121.188C224.188 119.854 222.875 118.688 221.25 117.688C219.667 116.646 217.854 115.688 215.812 114.812C213.771 113.896 211.667 112.938 209.5 111.938C207.333 110.938 205.229 109.812 203.188 108.562C201.146 107.271 199.312 105.75 197.688 104C196.104 102.208 194.812 100.104 193.812 97.6875C192.812 95.2708 192.312 92.375 192.312 89C192.312 85.125 193.021 81.7292 194.438 78.8125C195.896 75.8542 197.833 73.4167 200.25 71.5C202.708 69.5417 205.583 68.0833 208.875 67.125C212.208 66.1667 215.729 65.6875 219.438 65.6875C221.354 65.6875 223.271 65.8333 225.188 66.125C227.104 66.4167 228.896 66.8125 230.562 67.3125C232.229 67.8125 233.708 68.375 235 69C236.292 69.625 237.146 70.1458 237.562 70.5625C237.979 70.9792 238.25 71.3333 238.375 71.625C238.542 71.9167 238.667 72.3125 238.75 72.8125C238.875 73.2708 238.958 73.875 239 74.625C239.042 75.3333 239.062 76.2292 239.062 77.3125C239.062 78.5208 239.021 79.5417 238.938 80.375C238.896 81.2083 238.792 81.8958 238.625 82.4375C238.5 82.9792 238.292 83.375 238 83.625C237.75 83.875 237.396 84 236.938 84C236.479 84 235.75 83.7083 234.75 83.125C233.75 82.5417 232.521 81.9167 231.062 81.25C229.604 80.5417 227.917 79.9167 226 79.375C224.083 78.7917 221.979 78.5 219.688 78.5C217.896 78.5 216.333 78.7292 215 79.1875C213.667 79.6042 212.542 80.2083 211.625 81C210.75 81.75 210.083 82.6667 209.625 83.75C209.208 84.8333 209 85.9792 209 87.1875C209 88.9792 209.479 90.5417 210.438 91.875C211.438 93.1667 212.75 94.3333 214.375 95.375C216.042 96.375 217.917 97.3333 220 98.25C222.083 99.125 224.208 100.062 226.375 101.062C228.542 102.062 230.667 103.208 232.75 104.5C234.833 105.75 236.688 107.271 238.312 109.062C239.938 110.812 241.25 112.896 242.25 115.312C243.25 117.688 243.75 120.5 243.75 123.75ZM311.75 117.438C311.75 122.188 311.125 126.521 309.875 130.438C308.625 134.354 306.729 137.729 304.188 140.562C301.646 143.396 298.458 145.583 294.625 147.125C290.792 148.667 286.312 149.438 281.188 149.438C276.229 149.438 271.917 148.75 268.25 147.375C264.583 146 261.542 144 259.125 141.375C256.708 138.75 254.917 135.521 253.75 131.688C252.583 127.854 252 123.479 252 118.562C252 113.812 252.625 109.479 253.875 105.562C255.167 101.604 257.083 98.2292 259.625 95.4375C262.167 92.6042 265.333 90.4167 269.125 88.875C272.958 87.3333 277.438 86.5625 282.562 86.5625C287.562 86.5625 291.896 87.25 295.562 88.625C299.229 89.9583 302.25 91.9375 304.625 94.5625C307.042 97.1875 308.833 100.417 310 104.25C311.167 108.083 311.75 112.479 311.75 117.438ZM295.562 118.062C295.562 115.312 295.333 112.792 294.875 110.5C294.458 108.167 293.729 106.146 292.688 104.438C291.646 102.729 290.25 101.396 288.5 100.438C286.792 99.4792 284.625 99 282 99C279.667 99 277.625 99.4375 275.875 100.312C274.125 101.146 272.688 102.396 271.562 104.062C270.438 105.688 269.583 107.667 269 110C268.458 112.292 268.188 114.917 268.188 117.875C268.188 120.625 268.417 123.167 268.875 125.5C269.333 127.792 270.062 129.792 271.062 131.5C272.104 133.208 273.5 134.542 275.25 135.5C277 136.417 279.167 136.875 281.75 136.875C284.125 136.875 286.188 136.458 287.938 135.625C289.688 134.75 291.125 133.5 292.25 131.875C293.375 130.25 294.208 128.292 294.75 126C295.292 123.667 295.562 121.021 295.562 118.062ZM343 100.75V145.875C343 146.292 342.875 146.667 342.625 147C342.375 147.292 341.958 147.542 341.375 147.75C340.792 147.958 339.979 148.104 338.938 148.188C337.896 148.312 336.625 148.375 335.125 148.375C333.625 148.375 332.354 148.312 331.312 148.188C330.312 148.104 329.5 147.958 328.875 147.75C328.292 147.542 327.875 147.292 327.625 147C327.417 146.667 327.312 146.292 327.312 145.875V100.75H320.312C319.521 100.75 318.917 100.271 318.5 99.3125C318.125 98.3125 317.938 96.6667 317.938 94.375C317.938 93.1667 317.979 92.1458 318.062 91.3125C318.188 90.4792 318.333 89.8333 318.5 89.375C318.708 88.875 318.958 88.5208 319.25 88.3125C319.583 88.1042 319.958 88 320.375 88H327.312V83.3125C327.312 79.5208 327.688 76.2083 328.438 73.375C329.188 70.5 330.354 68.125 331.938 66.25C333.521 64.3333 335.542 62.8958 338 61.9375C340.458 60.9792 343.375 60.5 346.75 60.5C348.375 60.5 349.958 60.6458 351.5 60.9375C353.083 61.2292 354.229 61.5208 354.938 61.8125C355.688 62.1042 356.208 62.3958 356.5 62.6875C356.792 62.9375 357.021 63.3333 357.188 63.875C357.354 64.375 357.458 65.0417 357.5 65.875C357.583 66.6667 357.625 67.6667 357.625 68.875C357.625 70.0833 357.583 71.0625 357.5 71.8125C357.417 72.5208 357.292 73.0833 357.125 73.5C356.958 73.875 356.771 74.1458 356.562 74.3125C356.354 74.4375 356.125 74.5 355.875 74.5C355.625 74.5 355.312 74.4375 354.938 74.3125C354.604 74.1458 354.167 73.9792 353.625 73.8125C353.125 73.6458 352.521 73.5 351.812 73.375C351.146 73.2083 350.333 73.125 349.375 73.125C348.25 73.125 347.271 73.3125 346.438 73.6875C345.646 74.0208 344.979 74.5833 344.438 75.375C343.938 76.125 343.542 77.125 343.25 78.375C343 79.5833 342.875 81.0833 342.875 82.875V88H364V75.5625C364 75.1458 364.125 74.7708 364.375 74.4375C364.625 74.1042 365.042 73.8333 365.625 73.625C366.208 73.375 367 73.2083 368 73.125C369.042 73 370.312 72.9375 371.812 72.9375C373.354 72.9375 374.625 73 375.625 73.125C376.625 73.2083 377.417 73.375 378 73.625C378.625 73.8333 379.062 74.1042 379.312 74.4375C379.562 74.7708 379.688 75.1458 379.688 75.5625V88H391.812C392.229 88 392.583 88.1042 392.875 88.3125C393.208 88.5208 393.479 88.875 393.688 89.375C393.896 89.8333 394.042 90.4792 394.125 91.3125C394.25 92.1458 394.312 93.1667 394.312 94.375C394.312 96.6667 394.104 98.3125 393.688 99.3125C393.271 100.271 392.667 100.75 391.875 100.75H379.688V126.938C379.688 129.979 380.146 132.271 381.062 133.812C382.021 135.312 383.75 136.062 386.25 136.062C387.083 136.062 387.833 136 388.5 135.875C389.167 135.708 389.75 135.542 390.25 135.375C390.75 135.167 391.188 135 391.562 134.875C391.938 134.708 392.271 134.625 392.562 134.625C392.812 134.625 393.042 134.708 393.25 134.875C393.458 135 393.625 135.292 393.75 135.75C393.917 136.167 394.042 136.75 394.125 137.5C394.25 138.25 394.312 139.208 394.312 140.375C394.312 142.208 394.188 143.625 393.938 144.625C393.729 145.625 393.417 146.312 393 146.688C392.625 147.062 392.083 147.417 391.375 147.75C390.667 148.042 389.812 148.292 388.812 148.5C387.854 148.75 386.812 148.938 385.688 149.062C384.562 149.188 383.417 149.25 382.25 149.25C379.083 149.25 376.354 148.854 374.062 148.062C371.771 147.271 369.875 146.062 368.375 144.438C366.875 142.771 365.771 140.688 365.062 138.188C364.354 135.688 364 132.729 364 129.312V100.75H343Z" fill="#275CD6"/>
<path d="M108.255 35.6212C109.042 34.3953 110.834 34.3953 111.621 35.6212L147.297 91.1865C148.152 92.5176 147.196 94.2671 145.614 94.2671H74.2619C72.6801 94.2671 71.7243 92.5176 72.579 91.1865L108.255 35.6212Z" fill="#D9D9D9"/>
<ellipse cx="102" cy="101.5" rx="71" ry="68.5" fill="#275CD6"/>
<ellipse cx="102.441" cy="101.925" rx="55.5652" ry="53.6087" fill="white"/>
<path d="M153.596 101.5C153.596 94.9628 152.261 88.4897 149.668 82.4502C147.075 76.4106 143.275 70.923 138.484 66.3005C133.693 61.6781 128.005 58.0114 121.745 55.5097C115.485 53.008 108.775 51.7205 102 51.7205L102 101.5H153.596Z" fill="#1E2B44"/>
<path d="M153.596 104.053C153.596 110.255 152.261 116.396 149.668 122.126C147.075 127.856 143.275 133.062 138.484 137.447C133.693 141.833 128.005 145.311 121.745 147.685C115.485 150.058 108.775 151.28 102 151.28L102 104.053H153.596Z" fill="#30B2C4"/>
</svg>
