<svg xmlns="http://www.w3.org/2000/svg" xmlns:xlink="http://www.w3.org/1999/xlink" preserveAspectRatio="xMidYMid meet" version="1.0" viewBox="-2.0 0.0 235.7 224.3" zoomAndPan="magnify" style="fill: rgb(0, 0, 0);" original_string_length="10852"><g><linearGradient xmlns:xlink="http://www.w3.org/1999/xlink" gradientUnits="userSpaceOnUse" id="__id561_smymmr5jnq" x1="15.402" x2="219.196" xlink:actuate="onLoad" xlink:show="other" xlink:type="simple" y1="114.185" y2="114.185"><stop offset=".03" style="stop-color: rgb(18, 161, 189);"/><stop offset="1" style="stop-color: rgb(23, 198, 216);"/></linearGradient><path d="M53.3,30.7c-21.9,15.4-10.9,60.3-12.6,87.9C39.1,146.2-2,157.1,24,193.9c21.4,30.4,59.4,0,90.4-14.2 c31-14.2,119.3-36.7,102.8-102c-5.8-22.8-17.2-36.1-62.9-46.2C113.3,22.4,75.9,14.7,53.3,30.7z" style="fill: url(&quot;#__id561_smymmr5jnq&quot;);"/><g id="__id562_smymmr5jnq"><path d="M40,219.6c0,0-0.1,0-0.1,0c-2.1-0.2-4.1-0.6-6.1-1.2c-0.5-0.2-0.8-0.7-0.7-1.3c0.2-0.5,0.7-0.8,1.3-0.7 c1.8,0.6,3.7,1,5.7,1.2c0.5,0.1,0.9,0.6,0.9,1.1C40.9,219.2,40.5,219.6,40,219.6z M48,219.5c-0.5,0-0.9-0.4-1-0.9 c-0.1-0.5,0.3-1,0.9-1.1c1.8-0.2,3.8-0.5,5.8-1c0.5-0.1,1.1,0.2,1.2,0.8c0.1,0.5-0.2,1.1-0.8,1.2c-2.1,0.5-4.1,0.8-6,1 C48.1,219.5,48,219.5,48,219.5z M61.6,216.3c-0.4,0-0.8-0.3-0.9-0.7c-0.2-0.5,0.1-1.1,0.6-1.3c1.8-0.6,3.6-1.3,5.6-2 c0.5-0.2,1.1,0.1,1.3,0.6c0.2,0.5-0.1,1.1-0.6,1.3c-2,0.8-3.9,1.5-5.7,2.1C61.9,216.3,61.7,216.3,61.6,216.3z M26.8,215 c-0.2,0-0.4,0-0.5-0.2c-1.7-1.1-3.3-2.3-4.9-3.7c-0.4-0.4-0.5-1-0.1-1.4c0.4-0.4,1-0.5,1.4-0.1c1.5,1.3,3.1,2.5,4.7,3.5 c0.5,0.3,0.6,0.9,0.3,1.4C27.5,214.8,27.2,215,26.8,215z M74.7,211.2c-0.4,0-0.8-0.2-0.9-0.6c-0.2-0.5,0-1.1,0.5-1.3 c1.8-0.8,3.6-1.6,5.5-2.5c0.5-0.2,1.1,0,1.3,0.5c0.2,0.5,0,1.1-0.5,1.3c-1.9,0.9-3.7,1.7-5.5,2.5C75,211.1,74.8,211.2,74.7,211.2z M16.5,205.6c-0.3,0-0.6-0.1-0.8-0.4c-1.2-1.5-2.5-3.1-3.7-4.9c-0.3-0.5-0.2-1.1,0.2-1.4c0.5-0.3,1.1-0.2,1.4,0.2 c1.2,1.7,2.4,3.3,3.6,4.7c0.4,0.4,0.3,1.1-0.1,1.4C16.9,205.5,16.7,205.6,16.5,205.6z M87.4,205.2c-0.4,0-0.7-0.2-0.9-0.6 c-0.2-0.5,0-1.1,0.5-1.3c1.8-0.9,3.6-1.7,5.4-2.6c0.5-0.2,1.1,0,1.3,0.5c0.2,0.5,0,1.1-0.5,1.3c-1.8,0.9-3.6,1.8-5.4,2.6 C87.7,205.2,87.6,205.2,87.4,205.2z M100,199c-0.4,0-0.7-0.2-0.9-0.6c-0.2-0.5,0-1.1,0.5-1.3c1.8-0.9,3.6-1.8,5.4-2.7 c0.5-0.2,1.1,0,1.3,0.5c0.2,0.5,0,1.1-0.5,1.3c-1.8,0.9-3.6,1.8-5.4,2.7C100.3,199,100.2,199,100,199z M8.5,194 c-0.3,0-0.7-0.2-0.9-0.5l-0.5-0.8c-0.9-1.6-1.7-3.1-2.4-4.6c-0.2-0.5,0-1.1,0.5-1.3c0.5-0.2,1.1,0,1.3,0.5 c0.7,1.4,1.5,2.9,2.3,4.5l0.5,0.8c0.3,0.5,0.1,1.1-0.4,1.4C8.9,194,8.7,194,8.5,194z M112.7,192.9c-0.4,0-0.7-0.2-0.9-0.6 c-0.2-0.5,0-1.1,0.5-1.3c1.8-0.9,3.6-1.7,5.4-2.6c0.5-0.2,1.1,0,1.3,0.5c0.2,0.5,0,1.1-0.5,1.3c-1.8,0.9-3.6,1.7-5.4,2.6 C113,192.8,112.8,192.9,112.7,192.9z M125.4,186.9c-0.4,0-0.7-0.2-0.9-0.6c-0.2-0.5,0-1.1,0.5-1.3c1.8-0.8,3.6-1.7,5.5-2.5 c0.5-0.2,1.1,0,1.3,0.5c0.2,0.5,0,1.1-0.5,1.3c-1.9,0.8-3.7,1.7-5.5,2.5C125.7,186.8,125.5,186.9,125.4,186.9z M2.9,181.2 c-0.4,0-0.8-0.3-1-0.7c-0.6-2.1-0.9-4.1-1.1-6.1c0-0.6,0.4-1,0.9-1.1c0.6,0,1,0.4,1.1,0.9c0.1,1.8,0.5,3.8,1,5.7 c0.1,0.5-0.2,1.1-0.7,1.2C3,181.2,2.9,181.2,2.9,181.2z M138.2,181.1c-0.4,0-0.7-0.2-0.9-0.6c-0.2-0.5,0-1.1,0.5-1.3 c1.8-0.8,3.7-1.6,5.5-2.5c0.5-0.2,1.1,0,1.3,0.5c0.2,0.5,0,1.1-0.5,1.3c-1.8,0.8-3.7,1.7-5.5,2.5 C138.5,181.1,138.3,181.1,138.2,181.1z M151,175.3c-0.4,0-0.7-0.2-0.9-0.6c-0.2-0.5,0-1.1,0.5-1.3c1.8-0.8,3.6-1.7,5.4-2.6 c0.5-0.2,1.1,0,1.3,0.5c0.2,0.5,0,1.1-0.5,1.3c-1.8,0.9-3.6,1.7-5.5,2.6C151.3,175.3,151.1,175.3,151,175.3z M163.7,169.2 c-0.4,0-0.7-0.2-0.9-0.6c-0.2-0.5,0-1.1,0.5-1.3c1.8-0.9,3.6-1.8,5.4-2.7c0.5-0.3,1.1-0.1,1.3,0.4c0.3,0.5,0.1,1.1-0.4,1.3 c-1.8,0.9-3.6,1.8-5.4,2.7C164,169.2,163.8,169.2,163.7,169.2z M2.5,167.3c-0.1,0-0.2,0-0.2,0c-0.5-0.1-0.9-0.7-0.7-1.2 c0.5-1.9,1.2-3.8,2.1-5.8c0.2-0.5,0.8-0.7,1.3-0.5c0.5,0.2,0.7,0.8,0.5,1.3c-0.9,1.9-1.6,3.6-2,5.4C3.4,167,3,167.3,2.5,167.3z M176.1,162.7c-0.4,0-0.7-0.2-0.9-0.5c-0.3-0.5-0.1-1.1,0.4-1.4c1.8-1,3.6-2,5.2-3c0.5-0.3,1.1-0.1,1.4,0.4s0.1,1.1-0.4,1.4 c-1.7,1-3.4,2-5.3,3C176.5,162.7,176.3,162.7,176.1,162.7z M188.2,155.6c-0.3,0-0.7-0.2-0.8-0.5c-0.3-0.5-0.2-1.1,0.3-1.4 c1.7-1.1,3.4-2.2,5-3.3c0.5-0.3,1.1-0.2,1.4,0.3c0.3,0.5,0.2,1.1-0.3,1.4c-1.6,1.1-3.3,2.2-5,3.3 C188.6,155.6,188.4,155.6,188.2,155.6z M8.7,154.9c-0.2,0-0.4-0.1-0.6-0.2c-0.5-0.3-0.6-0.9-0.2-1.4c1.2-1.8,2.6-3.5,3.6-4.9 c0.3-0.4,1-0.5,1.4-0.2c0.4,0.3,0.5,1,0.2,1.4c-1,1.3-2.3,3.1-3.6,4.8C9.4,154.7,9,154.9,8.7,154.9z M199.7,147.5 c-0.3,0-0.6-0.1-0.8-0.4c-0.3-0.4-0.3-1.1,0.2-1.4c1.6-1.2,3.1-2.5,4.6-3.8c0.4-0.4,1-0.3,1.4,0.1c0.4,0.4,0.3,1-0.1,1.4 c-1.5,1.3-3.1,2.6-4.7,3.9C200.2,147.5,199.9,147.5,199.7,147.5z M17.2,143.7c-0.2,0-0.4-0.1-0.6-0.2c-0.4-0.3-0.5-1-0.2-1.4 c1.4-1.8,2.5-3.3,3.5-4.8c0.3-0.5,0.9-0.6,1.4-0.3c0.5,0.3,0.6,0.9,0.3,1.4c-1.1,1.5-2.2,3.1-3.6,4.9 C17.8,143.5,17.5,143.7,17.2,143.7z M210.2,138.2c-0.3,0-0.5-0.1-0.7-0.3c-0.4-0.4-0.4-1,0-1.4c1.4-1.4,2.7-2.9,4-4.4 c0.4-0.4,1-0.5,1.4-0.1c0.4,0.4,0.5,1,0.1,1.4c-1.3,1.5-2.6,3-4.1,4.5C210.7,138.1,210.5,138.2,210.2,138.2z M25,132 c-0.2,0-0.3,0-0.5-0.1c-0.5-0.3-0.7-0.9-0.4-1.4c1-1.7,1.9-3.5,2.7-5.3c0.2-0.5,0.8-0.7,1.3-0.5c0.5,0.2,0.7,0.8,0.5,1.3 c-0.8,1.8-1.8,3.6-2.8,5.4C25.7,131.8,25.4,132,25,132z M219.1,127.3c-0.2,0-0.4-0.1-0.6-0.2c-0.5-0.3-0.6-0.9-0.3-1.4 c1.1-1.7,2.1-3.4,3-5.1c0.3-0.5,0.9-0.7,1.4-0.4c0.5,0.3,0.7,0.9,0.4,1.4c-0.9,1.8-2,3.5-3.1,5.2 C219.7,127.2,219.4,127.3,219.1,127.3z M30.7,119.2c-0.1,0-0.2,0-0.3,0c-0.5-0.2-0.8-0.7-0.7-1.3c0.6-1.9,1.1-3.8,1.5-5.7 c0.1-0.5,0.7-0.9,1.2-0.8c0.5,0.1,0.9,0.7,0.8,1.2c-0.4,2-1,4-1.6,5.9C31.5,118.9,31.1,119.2,30.7,119.2z M225.4,114.9 c-0.1,0-0.2,0-0.3-0.1c-0.5-0.2-0.8-0.8-0.6-1.3c0.7-1.8,1.3-3.7,1.8-5.6c0.1-0.5,0.7-0.9,1.2-0.7c0.5,0.1,0.9,0.7,0.7,1.2 c-0.5,2-1.1,3.9-1.8,5.8C226.2,114.6,225.8,114.9,225.4,114.9z M33.5,105.5c0,0-0.1,0-0.1,0c-0.5-0.1-0.9-0.5-0.9-1.1 c0.2-1.9,0.3-3.9,0.4-5.9c0-0.6,0.5-1,1-1c0.6,0,1,0.5,1,1c-0.1,2.1-0.2,4.1-0.4,6.1C34.4,105.1,34,105.5,33.5,105.5z M228.7,101.3c0,0-0.1,0-0.1,0c-0.5-0.1-0.9-0.6-0.9-1.1c0.2-1.9,0.4-3.9,0.4-5.9c0-0.6,0.5-1,1-1c0.6,0,1,0.5,1,1 c0,2.1-0.2,4.1-0.4,6.1C229.6,100.9,229.2,101.3,228.7,101.3z M33.7,91.4c-0.5,0-1-0.4-1-0.9c-0.1-1.9-0.3-3.9-0.5-5.9 c-0.1-0.5,0.3-1,0.9-1.1c0.5-0.1,1,0.3,1.1,0.9c0.2,2,0.4,4.1,0.5,6.1C34.8,90.9,34.4,91.4,33.7,91.4 C33.8,91.4,33.8,91.4,33.7,91.4z M228.8,87.2c-0.5,0-1-0.4-1-0.9c-0.2-2-0.4-4-0.8-5.9c-0.1-0.5,0.3-1.1,0.8-1.2 c0.5-0.1,1.1,0.3,1.2,0.8c0.3,2,0.6,4,0.8,6.1C229.9,86.7,229.5,87.2,228.8,87.2C228.9,87.2,228.9,87.2,228.8,87.2z M32.2,77.5 c-0.5,0-0.9-0.4-1-0.9c-0.2-2-0.4-4.1-0.5-6.1c0-0.6,0.4-1,0.9-1.1c0.6,0,1,0.4,1.1,0.9c0.1,1.9,0.3,3.9,0.5,5.9 c0.1,0.5-0.3,1-0.9,1.1C32.3,77.5,32.3,77.5,32.2,77.5z M226.2,73.5c-0.4,0-0.8-0.3-1-0.7c-0.6-1.9-1.3-3.7-2.1-5.5 c-0.2-0.5,0-1.1,0.5-1.3c0.5-0.2,1.1,0,1.3,0.5c0.8,1.8,1.5,3.8,2.2,5.7c0.2,0.5-0.1,1.1-0.7,1.3 C226.4,73.5,226.3,73.5,226.2,73.5z M31.6,63.4C31.6,63.4,31.6,63.4,31.6,63.4c-0.6,0-1-0.5-1-1c0-2.1,0.2-4.1,0.4-6.1 c0.1-0.5,0.5-1,1.1-0.9c0.5,0.1,1,0.5,0.9,1.1c-0.2,1.9-0.3,3.9-0.3,5.9C32.6,63,32.1,63.4,31.6,63.4z M220.3,60.8 c-0.3,0-0.7-0.2-0.8-0.5c-1-1.6-2.2-3.3-3.4-4.8c-0.3-0.4-0.3-1.1,0.2-1.4c0.4-0.3,1.1-0.3,1.4,0.2c1.3,1.6,2.5,3.3,3.6,5 c0.3,0.5,0.2,1.1-0.3,1.4C220.7,60.7,220.5,60.8,220.3,60.8z M211.4,50c-0.2,0-0.5-0.1-0.7-0.3c-1.4-1.3-2.9-2.6-4.5-3.9 c-0.4-0.3-0.5-1-0.2-1.4c0.3-0.4,1-0.5,1.4-0.2c1.6,1.3,3.2,2.6,4.6,4c0.4,0.4,0.4,1,0,1.4C211.9,49.9,211.6,50,211.4,50z M33.1,49.5c-0.1,0-0.1,0-0.2,0c-0.5-0.1-0.9-0.6-0.8-1.2c0.4-2,0.9-4,1.5-5.9c0.2-0.5,0.7-0.8,1.2-0.7c0.5,0.2,0.8,0.7,0.7,1.2 c-0.6,1.8-1,3.8-1.4,5.7C34,49.2,33.6,49.5,33.1,49.5z M200.3,41.4c-0.2,0-0.4-0.1-0.5-0.2c-1.6-1-3.4-2-5.1-3 c-0.5-0.3-0.7-0.9-0.4-1.4c0.3-0.5,0.9-0.7,1.4-0.4c1.8,1,3.6,2,5.2,3.1c0.5,0.3,0.6,0.9,0.3,1.4C201,41.2,200.6,41.4,200.3,41.4z M37.4,36.2c-0.1,0-0.3,0-0.4-0.1c-0.5-0.2-0.7-0.8-0.5-1.3c0.9-1.9,1.9-3.7,3-5.4c0.3-0.5,0.9-0.6,1.4-0.3 c0.5,0.3,0.6,0.9,0.3,1.4c-1,1.6-2,3.3-2.8,5.1C38.2,36,37.8,36.2,37.4,36.2z M187.9,34.8c-0.1,0-0.3,0-0.4-0.1 c-1.8-0.8-3.6-1.6-5.5-2.3c-0.5-0.2-0.8-0.8-0.6-1.3c0.2-0.5,0.8-0.8,1.3-0.6c1.9,0.7,3.8,1.5,5.6,2.3c0.5,0.2,0.7,0.8,0.5,1.3 C188.7,34.6,188.3,34.8,187.9,34.8z M174.8,29.8c-0.1,0-0.2,0-0.3,0c-1.8-0.6-3.8-1.2-5.7-1.7c-0.5-0.1-0.8-0.7-0.7-1.2 s0.7-0.8,1.2-0.7c2,0.6,3.9,1.1,5.8,1.7c0.5,0.2,0.8,0.7,0.6,1.3C175.6,29.6,175.2,29.8,174.8,29.8z M161.3,26.1 c-0.1,0-0.2,0-0.2,0c-1.9-0.4-3.9-0.9-5.9-1.3c-0.5-0.1-0.9-0.6-0.8-1.2c0.1-0.5,0.6-0.9,1.2-0.8c2,0.4,4,0.8,5.9,1.3 c0.5,0.1,0.9,0.7,0.7,1.2C162.1,25.8,161.7,26.1,161.3,26.1z M45.4,24.7c-0.3,0-0.6-0.1-0.8-0.3c-0.4-0.4-0.3-1,0.1-1.4 c0.2-0.2,0.4-0.3,0.4-0.3c1.7-1.2,3.4-2.3,5.2-3.3c0.5-0.3,1.1-0.1,1.4,0.4c0.3,0.5,0.1,1.1-0.4,1.4c-1.7,0.9-3.4,2-5,3.1 c0,0,0,0,0,0c0,0-0.1,0.1-0.2,0.2C45.9,24.6,45.7,24.7,45.4,24.7z M147.5,23.2c-0.1,0-0.1,0-0.2,0c-2-0.4-4-0.8-5.9-1.1 c-0.5-0.1-0.9-0.6-0.8-1.2c0.1-0.5,0.6-0.9,1.2-0.8c1.9,0.4,3.9,0.7,5.9,1.1c0.5,0.1,0.9,0.6,0.8,1.2 C148.4,22.9,148,23.2,147.5,23.2z M133.7,20.7c-0.1,0-0.1,0-0.2,0c-2-0.4-4-0.7-5.9-1c-0.5-0.1-0.9-0.6-0.8-1.2 c0.1-0.5,0.6-0.9,1.2-0.8c1.9,0.3,3.9,0.7,5.9,1c0.5,0.1,0.9,0.6,0.8,1.2C134.6,20.3,134.2,20.7,133.7,20.7z M119.9,18.3 c-0.1,0-0.1,0-0.2,0c-2-0.3-4-0.6-5.9-0.9c-0.5-0.1-0.9-0.6-0.8-1.1c0.1-0.5,0.6-0.9,1.1-0.8c1.9,0.3,3.9,0.6,6,0.9 c0.5,0.1,0.9,0.6,0.8,1.1C120.8,18,120.3,18.3,119.9,18.3z M58.2,18.1c-0.4,0-0.8-0.3-0.9-0.7c-0.2-0.5,0.1-1.1,0.6-1.3 c1.9-0.6,3.9-1.2,5.9-1.6c0.5-0.1,1.1,0.2,1.2,0.8c0.1,0.5-0.2,1.1-0.8,1.2c-2,0.4-3.9,1-5.7,1.6C58.4,18.1,58.3,18.1,58.2,18.1z M106,16.3c0,0-0.1,0-0.1,0c-2-0.2-4-0.5-6-0.7c-0.5-0.1-1-0.5-0.9-1.1c0.1-0.5,0.5-1,1.1-0.9c2,0.2,4,0.4,6,0.7 c0.5,0.1,0.9,0.6,0.9,1.1C106.9,16,106.5,16.3,106,16.3z M71.9,15.2c-0.5,0-0.9-0.4-1-0.9c-0.1-0.5,0.3-1,0.9-1.1 c1.9-0.2,4-0.3,6.1-0.4c0.6,0,1,0.4,1,1c0,0.6-0.4,1-1,1c-2.1,0.1-4.1,0.2-5.9,0.4C72,15.2,72,15.2,71.9,15.2z M92,15 C92,15,91.9,15,92,15c-2.1-0.1-4.1-0.2-6-0.3c-0.6,0-1-0.5-1-1c0-0.6,0.5-1,1-1c1.9,0,4,0.1,6.1,0.3c0.6,0,1,0.5,0.9,1.1 C92.9,14.6,92.5,15,92,15z" style="fill: rgb(255, 255, 255);"/></g><circle cx="12.1" cy="95.5" r="10.5" style="fill: url(&quot;#__id561_smymmr5jnq&quot;);"/><circle cx="141.4" cy="202.5" r="12.8" style="fill: url(&quot;#__id561_smymmr5jnq&quot;);"/><g id="__id563_smymmr5jnq"><circle cx="179.3" cy="194.3" r="4.6" style="fill: rgb(255, 255, 255);"/></g><g id="__id564_smymmr5jnq"><circle cx="6.8" cy="43.4" r="5.2" style="fill: rgb(255, 255, 255);"/></g><g id="__id565_smymmr5jnq"><path d="M213.8,169.6H204v-9.9c0-0.7-0.6-1.3-1.3-1.3s-1.3,0.6-1.3,1.3v9.9h-9.9c-0.7,0-1.3,0.6-1.3,1.3 s0.6,1.3,1.3,1.3h9.9v9.9c0,0.7,0.6,1.3,1.3,1.3s1.3-0.6,1.3-1.3v-9.9h9.9c0.7,0,1.3-0.6,1.3-1.3S214.6,169.6,213.8,169.6z" style="fill: rgb(255, 255, 255);"/></g><g id="__id566_smymmr5jnq"><path d="M13,120.6H7.5v-5.4c0-0.4-0.3-0.7-0.7-0.7c-0.4,0-0.7,0.3-0.7,0.7v5.4H0.7c-0.4,0-0.7,0.3-0.7,0.7 c0,0.4,0.3,0.7,0.7,0.7h5.4v5.4c0,0.4,0.3,0.7,0.7,0.7c0.4,0,0.7-0.3,0.7-0.7V122H13c0.4,0,0.7-0.3,0.7-0.7 C13.7,121,13.4,120.6,13,120.6z" style="fill: rgb(255, 255, 255);"/></g><g id="__id567_smymmr5jnq"><path d="M153.5,6.1h-5.4V0.7c0-0.4-0.3-0.7-0.7-0.7s-0.7,0.3-0.7,0.7v5.4h-5.4c-0.4,0-0.7,0.3-0.7,0.7 c0,0.4,0.3,0.7,0.7,0.7h5.4V13c0,0.4,0.3,0.7,0.7,0.7s0.7-0.3,0.7-0.7V7.5h5.4c0.4,0,0.7-0.3,0.7-0.7 C154.2,6.5,153.9,6.1,153.5,6.1z" style="fill: rgb(255, 255, 255);"/></g></g></svg>