<svg xmlns="http://www.w3.org/2000/svg" xmlns:xlink="http://www.w3.org/1999/xlink" preserveAspectRatio="xMidYMid meet" version="1.0" viewBox="-1.7 -0.5 211.8 156.8" zoomAndPan="magnify" style="fill: rgb(0, 0, 0);" original_string_length="1037"><linearGradient xmlns:xlink="http://www.w3.org/1999/xlink" gradientUnits="userSpaceOnUse" id="__id264_spe74uofib" x1="0" x2="207.654" xlink:actuate="onLoad" xlink:show="other" xlink:type="simple" y1="76.684" y2="76.684"><stop offset="0" style="stop-color: rgb(23, 184, 222);"/><stop offset=".998" style="stop-color: rgb(43, 209, 218);"/></linearGradient><path d="M187.2,49c1.4-3.9,2.1-8.2,2-12.6C189,16.9,173.3,0.9,154,0c-11.4-0.5-21.8,4.3-28.9,12 c-6.5,7.1-17.3,8.2-25.4,3.1C88.8,8.2,75.7,4.5,61.8,5.2C28.6,6.8,1.7,33.7,0.1,66.9c-1.8,37.3,28,68.1,64.9,68.1 c10.7,0,20.9-2.6,29.8-7.2c8.8-4.6,19.5-2.2,25.4,5.8c10.6,14.4,29,22.7,48.9,18.7c17.1-3.4,34.2-20.6,37.6-37.8 c3.4-17.7-2.8-34.2-14.3-45C186.8,64.3,184.7,56.2,187.2,49z M130.1,66.2c-0.1,0.1-0.1,0.1-0.2,0.2c0-0.1,0-0.2,0-0.4 C129.9,66.1,130,66.2,130.1,66.2z" style="fill: url(&quot;#__id264_spe74uofib&quot;);"/></svg>