<svg xmlns="http://www.w3.org/2000/svg" xmlns:xlink="http://www.w3.org/1999/xlink" data-name="Layer 1" height="42.0" preserveAspectRatio="xMidYMid meet" version="1.0" viewBox="3.0 3.0 42.0 42.0" width="42.0" zoomAndPan="magnify"><g id="change1_1"><rect fill="#446c9e" height="42" rx="2" width="24" x="12" y="3"/></g><g id="change2_1"><path d="M36,5V9H12V5a2,2,0,0,1,2-2H34A2,2,0,0,1,36,5Z" fill="#98d6fc"/></g><g id="change2_2"><path d="M12,39H36v4a2,2,0,0,1-2,2H14a2,2,0,0,1-2-2Z" fill="#98d6fc"/></g><g id="change3_1"><path d="M17,26l4,4V15a2,2,0,0,0-2-2H5a2,2,0,0,0-2,2v9a2,2,0,0,0,2,2H17Z" fill="#fbe639"/></g><g id="change4_1"><path d="M31,31l-4,4V20a2,2,0,0,1,2-2H43a2,2,0,0,1,2,2v9a2,2,0,0,1-2,2H31Z" fill="#f47f8f"/></g><g id="change1_2"><path d="M28,7H20a1,1,0,0,1,0-2h8a1,1,0,0,1,0,2Z" fill="#446c9e"/></g><g id="change5_1"><path d="M14,18H7a1,1,0,0,1,0-2h7a1,1,0,0,1,0,2Z" fill="#f8f6f7"/></g><g id="change5_4"><path d="M11,23H7a1,1,0,0,1,0-2h4a1,1,0,0,1,0,2Z" fill="#f8f6f7"/></g><g id="change5_2"><path d="M41,23H34a1,1,0,0,1,0-2h7a1,1,0,0,1,0,2Z" fill="#f8f6f7"/></g><g id="change5_3"><path d="M41,28H37a1,1,0,0,1,0-2h4a1,1,0,0,1,0,2Z" fill="#f8f6f7"/></g></svg>